<svg width="65" height="72" viewBox="0 0 65 72" fill="none" xmlns="http://www.w3.org/2000/svg">
<path d="M34.2233 15.6C41.441 15.6 44.1173 19 44.3606 24H53.3219C53.038 17.12 48.7804 10.8 40.3057 8.76V0H28.141V8.64C26.5596 8.96 25.0998 9.48 23.6806 10.08L29.8035 16.12C31.1011 15.8 32.6014 15.6 34.2233 15.6ZM5.7174 3.68L0 9.32L13.9488 23.08C13.9488 31.4 20.2745 35.96 29.8035 38.72L44.0362 52.76C42.6575 54.72 39.7785 56.4 34.2233 56.4C25.8702 56.4 22.5858 52.72 22.1397 48H13.219C13.7056 56.76 20.3556 61.68 28.141 63.32V72H40.3057V63.4C44.1984 62.68 47.7261 61.2 50.2807 58.92L59.2826 67.8L65 62.16L5.7174 3.68Z" fill="#51D289" fill-opacity="0.31"/>
</svg>
