<svg width="88" height="85" viewBox="0 0 88 85" fill="none" xmlns="http://www.w3.org/2000/svg">
<g style="mix-blend-mode:color-dodge">
<path d="M39.449 0.720118L44 0.500581L48.551 0.720118L53.052 1.37629L57.4533 2.4618L61.7065 3.9646L65.765 5.86801L69.5841 8.15091L73.1222 10.7881L76.3404 13.7503L79.2036 17.0048L81.6809 20.516L83.7451 24.2451L85.3742 28.1514L86.5505 32.1922L87.2614 36.3234L87.4992 40.5L87.2614 44.6766L86.5505 48.8078L85.3742 52.8486L83.7451 56.7549L81.6809 60.484L79.2036 63.9952L76.3404 67.2497L73.1222 70.2119L69.5841 72.8491L65.765 75.132L61.7065 77.0354L57.4532 78.5382L53.052 79.6237L48.5511 80.2799L44 80.4994L39.4489 80.2799L34.948 79.6237L30.5467 78.5382L26.2935 77.0354L22.235 75.132L18.4159 72.8491L14.8778 70.212L11.6596 67.2497L8.79636 63.9952L6.31913 60.484L4.25484 56.7549L2.62576 52.8486L1.44947 48.8078L0.738612 44.6766L0.50081 40.5L0.738612 36.3234L1.44947 32.1922L2.62576 28.1514L4.25484 24.2451L6.31913 20.516L8.79636 17.0048L11.6596 13.7503L14.8778 10.7881L18.4159 8.15091L22.235 5.86801L26.2935 3.9646L30.5467 2.4618L34.948 1.37629L39.449 0.720118Z" stroke="#51D289" stroke-opacity="0.4"/>
</g>
<path d="M45.2233 20.6C52.441 20.6 55.1173 24 55.3606 29H64.3219C64.038 22.12 59.7804 15.8 51.3057 13.76V5H39.141V13.64C37.5596 13.96 36.0998 14.48 34.6806 15.08L40.8035 21.12C42.1011 20.8 43.6014 20.6 45.2233 20.6ZM16.7174 8.68L11 14.32L24.9488 28.08C24.9488 36.4 31.2745 40.96 40.8035 43.72L55.0362 57.76C53.6575 59.72 50.7785 61.4 45.2233 61.4C36.8702 61.4 33.5858 57.72 33.1397 53H24.219C24.7056 61.76 31.3556 66.68 39.141 68.32V77H51.3057V68.4C55.1984 67.68 58.7261 66.2 61.2807 63.92L70.2826 72.8L76 67.16L16.7174 8.68Z" fill="#51D289" fill-opacity="0.4"/>
</svg>
