<svg width="756" height="554" viewBox="0 0 756 554" fill="none" xmlns="http://www.w3.org/2000/svg">
<path d="M637.914 233.151C637.914 233.151 635.896 254.918 630.852 266.266C625.808 277.625 614.7 287.081 613.691 291.815C612.682 296.549 610.665 338.18 610.665 338.18" stroke="#363636" stroke-linecap="round" stroke-linejoin="round"/>
<path d="M610.665 350.468V368.452" stroke="#363636" stroke-linecap="round" stroke-linejoin="round"/>
<path d="M128.176 251.878C128.176 251.878 130.194 284.993 153.408 301.074" stroke="#363636" stroke-linecap="round" stroke-linejoin="round"/>
<path d="M127.167 242.422C127.167 242.422 127.167 229.171 130.194 219.715" stroke="#363636" stroke-linecap="round" stroke-linejoin="round"/>
<path d="M754.817 491.988C734.084 496.154 734.084 522.515 719.289 519.742C704.482 516.969 737.053 494.761 744.462 465.615C751.86 436.468 722.257 417.045 713.375 436.468C704.493 455.892 708.934 503.08 703.009 500.307C697.084 497.534 707.45 403.156 683.761 383.733C660.072 364.298 639.34 386.506 646.749 426.757C654.147 467.007 686.718 503.081 674.879 505.865C663.04 508.638 649.706 464.234 631.942 446.192C614.178 428.149 599.371 442.026 611.21 468.399C623.049 494.773 677.836 536.404 677.836 536.404C677.836 536.404 666.148 539.537 644.453 522.585C622.759 505.633 612.567 505.946 608.288 512.722C604.009 519.499 613.216 526.588 622.098 529.361" stroke="#363636" stroke-linecap="round" stroke-linejoin="round"/>
<path d="M124.141 389.268C124.141 389.268 152.399 394.002 150.381 405.349C148.364 416.709 113.033 415.757 84.7754 430.899C56.5179 446.041 82.7578 464.965 76.7051 482.938C70.6524 500.911 1 525.52 1 525.52" stroke="#363636" stroke-linecap="round" stroke-linejoin="round"/>
<path d="M340.775 174.162C349.309 171.795 358.562 168.883 365.936 164.137C380.697 154.657 377.96 150.26 369.681 136.94C346.12 99.0559 428.307 88.741 451.497 86.5945" stroke="#363636" stroke-linecap="round" stroke-linejoin="round"/>
<path d="M701.073 18.6712C703.206 14.2389 705.989 9.41209 710.778 6.67381C715.926 3.72667 721.376 2.56639 726.316 1" stroke="#363636" stroke-linecap="round" stroke-linejoin="round"/>
<path d="M564.527 71.4527C564.527 71.4527 647.561 77.9387 675.25 64.9667C687.587 59.1885 691.901 49.5348 694.742 39.568" stroke="#363636" stroke-linecap="round" stroke-linejoin="round"/>
<path d="M538.357 89.0776C538.357 89.0776 530.368 98.0582 530.368 106.297C530.368 114.535 533.557 125.755 535.157 136.986C536.757 148.218 526.368 168.43 526.368 168.43C526.368 168.43 540.34 158.452 543.134 153.462C545.929 148.473 548.723 139.237 548.723 139.237C548.723 139.237 555.912 133.993 556.712 128.006C557.512 122.019 559.112 118.271 559.112 110.787C559.112 103.303 553.524 85.3415 538.345 89.0776H538.357Z" fill="white"/>
<path d="M450.523 175.171L490.446 181.913L499.235 172.932L492.846 169.938C492.846 169.938 456.112 172.932 450.523 175.183V175.171Z" fill="white"/>
<path d="M352.3 446.888V552.428H369.067V433.405C369.067 433.405 362.678 441.643 352.3 446.876V446.888Z" fill="white"/>
<path d="M341.911 313.64C341.911 313.64 349.9 341.336 346.7 353.31C343.511 365.285 338.711 375.762 334.722 380.252C330.733 384.743 311.566 401.961 307.566 401.961C307.566 401.961 330.722 399.71 345.1 388.49C359.478 377.259 371.456 359.298 373.044 343.576C374.644 327.854 366.655 309.892 366.655 309.892H348.288L341.899 313.64H341.911Z" fill="white"/>
<path d="M289.211 169.927L261.266 176.668C261.266 176.668 314.767 188.642 338.722 211.105L365.078 206.615C365.078 206.615 347.511 182.667 289.211 169.938V169.927Z" fill="white"/>
<path d="M539.957 167.676C539.957 167.676 543.146 171.424 544.746 178.907C546.346 186.391 546.346 189.385 546.346 189.385C546.346 189.385 554.335 187.134 571.102 192.378C587.869 197.623 605.435 199.12 595.058 201.359C584.68 203.598 567.902 198.365 581.48 204.353C595.058 210.34 603.835 205.107 607.036 213.333C610.224 221.571 611.024 250.01 605.435 251.507C599.847 253.003 583.88 245.52 583.88 252.261C583.88 259.002 596.658 261.242 595.058 270.976C593.458 280.711 591.869 286.698 585.48 294.182C579.091 301.666 570.302 293.428 563.124 291.931C555.935 290.434 566.313 297.918 567.913 309.15C569.513 320.381 558.336 327.111 558.336 327.111C558.336 327.111 546.358 308.396 547.958 316.634C549.558 324.872 554.347 333.098 553.547 338.343C552.747 343.587 539.169 339.839 536.78 331.601C534.38 323.363 521.706 308.732 520.013 315.88C518.321 323.038 528.003 335.338 528.803 344.33C529.603 353.31 520.814 361.548 520.814 361.548L510.436 360.794H504.047C504.047 360.794 502.447 370.529 493.669 378.013C484.88 385.497 480.091 386.251 489.68 390.741C499.258 395.232 523.225 396.728 544.781 396.728C566.336 396.728 587.903 381.761 591.892 377.27C595.881 372.78 592.692 360.052 592.692 350.328C592.692 340.605 602.27 294.936 602.27 294.936C602.27 294.936 623.825 259.002 625.426 247.028C627.026 235.054 620.706 210.978 618.236 207.358C615.767 203.738 610.247 195.384 599.87 188.642C589.492 181.901 547.958 169.184 547.958 169.184C547.958 169.184 551.147 166.933 547.958 163.197C544.769 159.449 541.569 158.707 541.569 158.707L539.969 167.687L539.957 167.676Z" fill="white"/>
<g style="mix-blend-mode:multiply">
<path d="M456.82 172.804C456.82 172.804 440.331 173.489 433.919 183.27C427.507 193.051 423.495 221.618 422.683 230.645C421.883 239.672 406.636 261.474 410.647 268.238" stroke="#363636" stroke-linecap="round" stroke-linejoin="round"/>
<path d="M398.612 326.554C398.612 326.554 398.612 341.359 403.551 346.917C408.491 352.475 411.448 354.32 423.298 354.32C435.148 354.32 434.163 348.762 434.163 348.762" stroke="#363636" stroke-linecap="round" stroke-linejoin="round"/>
<path d="M439.96 361.723C439.96 361.723 435.345 409.294 436.505 425.504C437.653 441.724 443.427 551.894 443.427 551.894H595.661C595.661 551.894 597.968 470.906 597.968 436.317C597.968 401.729 589.898 370.367 589.898 370.367C589.898 370.367 502.25 390.904 439.972 361.723H439.96Z" fill="#363636"/>
<path d="M542.218 170.484C542.218 170.484 561.037 173.617 573.201 178.501C585.364 183.386 613.146 191.531 615.755 203.738C618.364 215.944 613.146 240.368 607.94 267.24C602.734 294.101 595 314.742 594.049 329.919C591.962 362.987 595.521 371.086 589.712 377.131C582.349 384.789 550.636 397.483 511.549 394.222C472.473 390.962 440.679 376.319 436.342 359.216C432.006 342.125 441.549 307.235 436.342 259.199C431.136 211.175 441.201 175.229 456.843 172.781C472.473 170.345 514.158 168.709 522.843 168.709C531.527 168.709 542.241 170.461 542.241 170.461L542.218 170.484Z" fill="white" stroke="#363636" stroke-linecap="round" stroke-linejoin="round"/>
<path d="M493.982 210.583L501.009 229.403C501.009 229.403 481.935 313.164 475.905 330.105C471.974 341.174 469.319 356.258 467.951 365.389C467.186 370.494 468.31 375.681 471.116 380.113L476.74 389.001C478.653 392.029 482.944 392.853 485.981 390.765L495.153 384.453C500.128 381.03 503.177 375.669 503.455 369.891L510.042 232.223L526.101 215.282L510.042 191.752L493.982 210.572V210.583Z" fill="#C2B7BC"/>
<path d="M500.406 168.813C500.406 168.813 497.229 172.526 492.475 180.706C487.721 188.886 481.738 214.61 486.503 216.837C491.257 219.065 511.085 206.429 511.085 206.429C511.085 206.429 515.051 224.263 524.57 222.778C534.09 221.293 549.941 188.584 549.152 174.464C548.364 160.343 543.598 157.372 535.667 155.876C527.736 154.391 500.406 168.801 500.406 168.801V168.813Z" fill="white" stroke="#363636" stroke-linecap="round" stroke-linejoin="round"/>
<path d="M499.977 172.236C499.977 172.236 504.731 180.416 505.531 189.327C506.122 195.952 508.708 202.705 511.874 202.705C515.039 202.705 540.421 170.739 540.421 164.798C540.421 158.858 538.833 144.725 538.833 144.725C538.833 144.725 508.697 169.996 499.977 172.224V172.236Z" fill="white" stroke="#363636" stroke-linecap="round" stroke-linejoin="round"/>
<g style="mix-blend-mode:multiply">
<path d="M536.525 162.64C536.525 162.64 527.237 177.445 518.877 182.667C510.517 187.888 504.94 184.407 504.94 184.407L498.736 171.864C498.736 171.864 528.165 167.862 536.525 162.629V162.64Z" fill="#C2B7BC"/>
</g>
<path d="M492.579 74.249C487.895 76.6856 482.642 79.5631 480.833 84.6104C476.079 97.8609 477.018 122.042 479.511 138.413C480.88 147.429 484.323 165.448 498.736 171.876C517.683 180.335 538.021 163.499 545.964 148.461C555.75 129.932 555.008 105.229 548.572 85.8867C546.242 78.8786 541.778 74.2954 534.357 71.998C521.138 67.9022 505.021 67.7746 492.591 74.249H492.579Z" fill="white" stroke="#363636" stroke-linecap="round" stroke-linejoin="round"/>
<path d="M495.977 115.881C495.977 115.881 495.292 133.9 495.292 140.339C495.292 146.779 498.04 148.067 502.157 148.067C506.273 148.067 512.453 140.339 512.453 140.339" fill="white"/>
<path d="M495.977 115.881C495.977 115.881 495.292 133.9 495.292 140.339C495.292 146.779 498.04 148.067 502.157 148.067C506.273 148.067 512.453 140.339 512.453 140.339" stroke="#363636" stroke-linecap="round" stroke-linejoin="round"/>
<path d="M511.839 109.754C511.839 109.754 519.167 108.791 525.846 112.98L511.839 109.754Z" fill="white"/>
<path d="M511.839 109.754C511.839 109.754 519.167 108.791 525.846 112.98" stroke="#363636" stroke-linecap="round" stroke-linejoin="round"/>
<path d="M494.562 104.811C494.562 104.811 487.605 103.663 483.709 108.165L494.562 104.811Z" fill="white"/>
<path d="M494.562 104.811C494.562 104.811 487.605 103.663 483.709 108.165" stroke="#363636" stroke-linecap="round" stroke-linejoin="round"/>
<path d="M511.642 124.966C511.642 124.966 515.515 128.238 525.51 126.172L511.642 124.966Z" fill="white"/>
<path d="M511.642 124.966C511.642 124.966 515.515 128.238 525.51 126.172" stroke="#363636" stroke-linecap="round" stroke-linejoin="round"/>
<path d="M482.248 122.32C482.248 122.32 487.06 127.472 492.544 124.246L482.248 122.32Z" fill="white"/>
<path d="M482.248 122.32C482.248 122.32 487.06 127.472 492.544 124.246" stroke="#363636" stroke-linecap="round" stroke-linejoin="round"/>
<path d="M548.561 85.8868C548.561 85.8868 550.231 59.8846 532.374 54.0948" stroke="#363636" stroke-miterlimit="10"/>
<path d="M552.967 86.2812C552.967 86.2812 538.543 57.3204 513.149 54.7445" stroke="#363636" stroke-miterlimit="10" stroke-linecap="round"/>
<path d="M560.527 96.573C558.463 87.5575 552.979 86.2696 552.979 86.2696C552.979 86.2696 548.503 76.8481 540.931 69.5615C541.059 69.5615 541.175 69.5382 541.302 69.5382C541.302 69.5382 540.015 68.1807 537.232 66.4055C535.505 65.1059 533.649 63.9805 531.69 63.1102C530.391 62.5301 528.977 62.0892 527.469 61.7643C521.474 59.6642 513.381 57.9586 502.853 57.9586C475.384 57.9586 460.287 70.8262 458.907 82.4175C457.538 93.9971 474.699 82.4174 472.635 84.3435C470.571 86.2696 457.527 93.9971 466.455 99.787C472.009 103.384 478.317 102.004 483.755 98.998C486.677 97.3852 495.907 92.686 497.565 90.1102C496.336 92.013 494.145 95.053 491.165 97.8493C486.353 102.352 482.236 103.64 482.236 103.64C482.236 103.64 490.48 104.278 498.713 98.4874C506.957 92.6976 518.622 86.9078 529.614 86.9078C540.607 86.9078 538.543 95.9232 538.543 95.9232C538.543 95.9232 530.994 104.289 535.795 108.791C540.595 113.293 544.039 113.293 544.723 115.231C545.407 117.157 544.039 122.309 546.091 122.309C548.143 122.309 547.459 112.655 550.903 112.655C554.347 112.655 558.452 118.445 558.452 118.445C558.452 118.445 562.568 105.577 560.516 96.5614L560.527 96.573Z" fill="#363636"/>
<path d="M544.734 124.896C544.734 124.896 547.483 110.74 555.031 110.74C562.579 110.74 559.843 119.756 557.095 128.76C554.347 137.775 547.483 139.052 547.483 139.052" fill="white"/>
<path d="M544.734 124.896C544.734 124.896 547.483 110.74 555.031 110.74C562.579 110.74 559.843 119.756 557.095 128.76C554.347 137.775 547.483 139.052 547.483 139.052" stroke="#363636" stroke-linecap="round" stroke-linejoin="round"/>
<path d="M589.283 208.901C589.283 208.901 560.492 222.674 555.866 239.533C551.239 256.392 534.994 290.492 528.536 295.818C528.536 295.818 519.352 303.058 528.895 307.943C538.45 312.828 547.135 331.555 550.602 340.501C554.08 349.458 567.786 345.467 568.226 338.969C568.667 332.472 575.404 323.085 581.746 319.384C588.089 315.682 614.259 276.465 622.747 254.129C631.235 231.793 619.129 204.968 611.337 204.503" fill="white"/>
<path d="M589.283 208.901C589.283 208.901 560.492 222.674 555.866 239.533C551.239 256.392 534.994 290.492 528.536 295.818C528.536 295.818 519.352 303.058 528.895 307.943C538.45 312.828 547.135 331.555 550.602 340.501C554.08 349.458 567.786 345.467 568.226 338.969C568.667 332.472 575.404 323.085 581.746 319.384C588.089 315.682 614.259 276.465 622.747 254.129C631.235 231.793 619.129 204.968 611.337 204.503" stroke="#363636" stroke-linecap="round" stroke-linejoin="round"/>
<path d="M396.559 221.188L409.082 286.315C409.534 288.88 412.108 290.632 414.857 290.237C417.767 289.819 419.692 287.186 419.054 284.494L406.149 219.436C405.58 217.058 403.354 216.199 400.792 216.594C398.125 217.011 396.119 218.682 396.559 221.177V221.188Z" fill="white" stroke="#363636" stroke-linecap="round" stroke-linejoin="round"/>
<path d="M413.813 252.458C413.813 252.458 399.62 246.413 396.606 247.214C393.591 248.026 392.733 256.484 392.733 256.484C392.733 256.484 393.162 260.116 394.449 264.954C395.736 269.793 400.038 277.056 404.769 279.47C409.5 281.895 416.387 281.895 418.961 279.47C421.535 277.045 419.819 267.774 419.819 267.774" fill="white"/>
<path d="M413.813 252.458C413.813 252.458 399.62 246.413 396.606 247.214C393.591 248.026 392.733 256.484 392.733 256.484C392.733 256.484 393.162 260.116 394.449 264.954C395.736 269.793 400.038 277.056 404.769 279.47C409.5 281.895 416.387 281.895 418.961 279.47C421.535 277.045 419.819 267.774 419.819 267.774" stroke="#363636" stroke-linecap="round" stroke-linejoin="round"/>
<path d="M420.701 243.582C420.701 243.582 413.546 243.431 413.546 248.699C413.546 253.967 412.92 263.33 414.799 265.094C416.677 266.846 423.541 266.846 424.794 260.998C425.547 257.471 425.942 252.725 426.15 249.511C426.324 246.703 424.307 244.046 421.338 243.628C421.118 243.594 420.909 243.582 420.701 243.582Z" fill="white" stroke="#363636" stroke-linecap="round" stroke-linejoin="round"/>
<path d="M377.427 194.061L384.06 229.241C385.729 238.616 395.121 245.009 405.151 243.582C415.784 242.074 422.822 232.443 420.492 222.604L412.468 187.679C410.404 179 402.264 175.844 392.907 177.306C383.178 178.826 375.815 184.941 377.439 194.061H377.427Z" fill="white" stroke="#363636" stroke-linecap="round" stroke-linejoin="round"/>
<g style="mix-blend-mode:multiply">
<path d="M395.759 177.016C394.82 177.063 393.869 177.155 392.895 177.306C383.167 178.826 375.804 184.941 377.427 194.061L384.06 229.241C385.729 238.616 395.121 245.009 405.151 243.582C406.682 243.361 408.131 242.967 409.488 242.433L395.759 177.028V177.016Z" fill="#C2B7BC"/>
</g>
<path d="M411.598 185.417C413.024 191.729 406.415 198.377 396.849 200.28C387.272 202.183 378.366 198.598 376.94 192.297C375.514 185.985 382.123 179.337 391.689 177.434C401.267 175.531 410.172 179.116 411.598 185.417Z" fill="white" stroke="#363636" stroke-linecap="round" stroke-linejoin="round"/>
<path d="M412.653 257.911C414.741 263.516 412.132 269.456 406.833 271.185C401.534 272.914 395.562 269.781 393.475 264.177C391.388 258.573 393.997 252.632 399.296 250.903C404.595 249.175 410.566 252.307 412.653 257.911Z" fill="#363636"/>
<path d="M390.402 260.569L345.39 293.614C345.39 293.614 341.297 297.965 346.155 297.941C351.025 297.918 399.203 269.108 399.203 269.108C399.203 269.108 406.183 259.942 390.391 260.557L390.402 260.569Z" fill="#363636"/>
<path d="M519.318 341.754C520.628 335.303 508.789 317.469 501.16 314.568C501.16 314.568 487.732 307.235 476.578 304.938C465.423 302.641 444.679 300.575 427.843 292.233L411.007 283.879C411.007 283.879 408.641 267.426 407.25 262.448C405.847 257.471 402.6 254.013 394.808 253.549C387.005 253.085 377.694 249.256 374.934 251.542C372.163 253.827 373.404 261.242 373.404 261.242L362.261 267.484C357.738 267.217 352.092 266.857 350.236 266.857C347.245 266.857 343.755 271.997 348.242 273.401C352.729 274.805 367.189 275.734 367.189 275.734C374.308 283.589 380.929 292.465 388.489 299.879C392.594 303.905 399.667 304.497 403.308 307.897C403.308 307.897 447.416 341.441 461.481 348.484C485.784 360.643 512.708 362.581 518.135 359.634C523.562 356.698 518.042 348.205 519.353 341.766L519.318 341.754Z" fill="white" stroke="#363636" stroke-linecap="round" stroke-linejoin="round"/>
<g style="mix-blend-mode:multiply">
<path d="M496.846 314.696C496.846 314.696 503.757 328.492 505.206 338.041C506.656 347.579 497.206 353.717 489.205 353.032C481.204 352.347 452.123 342.125 452.123 342.125C452.123 342.125 479.233 358.706 498.655 359.17C518.089 359.622 522.646 362.581 525.556 356.443C528.466 350.305 527.005 329.861 518.286 323.05C509.555 316.239 500.104 308.407 496.835 314.708L496.846 314.696Z" fill="#C2B7BC"/>
</g>
<path d="M560.748 340.977C560.469 339.654 560.261 338.319 560.087 336.985C559.402 331.671 556.515 318.084 544.642 307.177C529.533 293.289 517.857 294.321 514.193 295.83C510.517 297.338 502.887 304.671 502.887 304.671C502.887 304.671 490.214 307.375 496.846 314.696C503.479 322.017 514.332 333.052 515.399 343.506C516.465 353.96 515.654 366.027 528.385 362.453C541.117 358.891 543.076 356.408 553.906 354.459C562.324 352.951 561.524 344.62 560.736 340.977H560.748Z" fill="white" stroke="#363636" stroke-linecap="round" stroke-linejoin="round"/>
<path d="M369.508 263.748C369.508 263.748 383.7 263.748 385.428 265.361C387.144 266.973 387.573 268.18 387.573 268.18" stroke="#363636" stroke-linecap="round" stroke-linejoin="round"/>
<path d="M373.38 261.23C373.38 261.23 378.969 260.116 385.857 260.116C392.744 260.116 396.177 262.135 396.177 262.135" stroke="#363636" stroke-linecap="round" stroke-linejoin="round"/>
<path d="M509.323 308.094C509.323 308.094 532.583 317.121 533.394 329.896" stroke="#363636" stroke-linecap="round" stroke-linejoin="round"/>
<path d="M535.806 337.414C535.806 337.414 536.606 344.933 536.606 348.692" stroke="#363636" stroke-linecap="round" stroke-linejoin="round"/>
<path d="M502.563 154.715C502.563 154.715 512.291 157.314 518.541 150.805L502.563 154.715Z" fill="white"/>
<path d="M502.563 154.715C502.563 154.715 512.291 157.314 518.541 150.805" stroke="#363636" stroke-linecap="round" stroke-linejoin="round"/>
<path d="M488.405 402.808C488.405 402.808 491.86 443.894 495.327 448.21C498.783 452.538 506.865 457.945 506.865 457.945" stroke="white" stroke-linecap="round" stroke-linejoin="round"/>
<path d="M528.768 441.724C528.768 441.724 510.32 464.431 510.32 469.827C510.32 475.222 511.468 550.815 511.468 550.815" stroke="white" stroke-miterlimit="10" stroke-linecap="round"/>
<path d="M587.59 386.588C587.59 386.588 572.598 406.046 537.998 406.046L535.76 397.332" stroke="white" stroke-linecap="round" stroke-linejoin="round"/>
<path d="M369.299 426.942H160.272V552.776H369.299V426.942Z" fill="white" stroke="#363636" stroke-miterlimit="10"/>
<path d="M188.147 552.776V466.996C188.147 463.387 185.028 460.463 181.178 460.463C177.329 460.463 174.21 463.387 174.21 466.996V552.776H188.147Z" fill="#51D289" stroke="#363636" stroke-miterlimit="10"/>
<path d="M344.219 552.776V475.709C344.219 472.101 341.099 469.177 337.25 469.177C333.4 469.177 330.281 472.101 330.281 475.709V552.776H344.219Z" fill="#51D289" stroke="#363636" stroke-miterlimit="10"/>
<path d="M218.805 552.776V477.45C218.805 473.841 215.686 470.917 211.836 470.917C207.986 470.917 204.867 473.841 204.867 477.45V552.776H218.805Z" fill="#51D289" stroke="#363636" stroke-miterlimit="10"/>
<path d="M259.724 552.776V484.005C259.724 479.179 255.55 475.28 250.413 475.28C245.265 475.28 241.102 479.19 241.102 484.005V552.776H259.724Z" fill="#51D289" stroke="#363636" stroke-miterlimit="10"/>
<path d="M308.957 552.776V483.135C308.957 478.308 304.783 474.41 299.646 474.41C294.498 474.41 290.336 478.32 290.336 483.135V552.776H308.957Z" fill="#51D289" stroke="#363636" stroke-miterlimit="10"/>
<path d="M369.299 426.942H160.272V552.776H369.299V426.942Z" stroke="#363636" stroke-miterlimit="10"/>
<path d="M264.791 463.956C322.509 463.956 369.299 447.384 369.299 426.942C369.299 406.501 322.509 389.929 264.791 389.929C207.073 389.929 160.283 406.501 160.283 426.942C160.283 447.384 207.073 463.956 264.791 463.956Z" fill="white" stroke="#363636" stroke-linecap="round" stroke-linejoin="round"/>
<path d="M264.791 463.956C322.509 463.956 369.299 447.384 369.299 426.942C369.299 406.501 322.509 389.929 264.791 389.929C207.073 389.929 160.283 406.501 160.283 426.942C160.283 447.384 207.073 463.956 264.791 463.956Z" stroke="#363636" stroke-linecap="round" stroke-linejoin="round"/>
<g style="mix-blend-mode:multiply">
<path d="M258.286 452.434C300.661 452.434 335.012 441.411 335.012 427.813C335.012 414.215 300.661 403.191 258.286 403.191C215.912 403.191 181.561 414.215 181.561 427.813C181.561 441.411 215.912 452.434 258.286 452.434Z" fill="#C2B7BC"/>
</g>
<path d="M373.114 334.015C373.114 323.92 371.166 315.299 367.502 307.781C366.957 307.398 365.09 306.11 361.866 303.87C357.982 301.179 354.109 301.515 354.109 301.515C354.109 301.515 351.523 296.491 348.938 293.88C346.352 291.281 341.181 292.743 341.181 292.743C341.181 292.743 339.244 290.179 336.647 287.58C334.061 284.981 325.005 284.958 325.005 284.958C325.005 284.958 321.77 276.847 318.535 272.38C317.097 270.396 316.32 269.433 315.88 268.957C303.925 264.073 297.212 263.342 281.79 259.211C247.364 249.917 238.934 245.717 238.934 234.195C238.934 225.632 247.016 219.935 263.527 221.072C263.91 221.096 264.293 221.142 264.687 221.177L306.244 255.034L332.391 248.548L366.47 205.78C344.694 187.818 318.697 176.146 287.077 170.669V149.923L248.43 147.255L222.283 153.741L228.545 166.04L229.113 170.275C192.576 177.573 170.093 201.301 170.093 236.028C170.093 283.113 210.491 298.742 262.832 313.547C296.203 323.097 304.632 325.324 304.632 336.185C304.632 346.059 294.8 351.315 276.178 350.027C247.723 348.066 221.019 336.672 196.438 316.866L170.29 323.352L151.657 364.229L180.877 377.201L183.59 375.309C203.058 387.11 225.078 395.278 248.419 399.815V421.547L257.892 422.197L260.918 430.69L287.066 424.204L287.564 403.446C339.963 402.971 373.137 377.967 373.137 333.98L373.114 334.015Z" fill="white" stroke="#363636" stroke-linecap="round" stroke-linejoin="round"/>
<g style="mix-blend-mode:multiply">
<path d="M366.435 205.791L330.698 214.668L306.221 255.034L332.368 248.548L366.435 205.791Z" fill="#C2B7BC"/>
</g>
<g style="mix-blend-mode:multiply">
<path d="M260.907 430.725L287.042 424.239V403.481L259.04 406.614L260.907 430.725Z" fill="#C2B7BC"/>
</g>
<g style="mix-blend-mode:multiply">
<path d="M253.173 277.59C255.956 276.72 283.831 275.85 283.831 275.85L301.571 274.156L306.128 267.136L312.216 267.542C302.395 263.899 295.553 262.912 281.778 259.211C247.352 249.917 238.922 245.717 238.922 234.195C238.922 227.779 243.468 222.964 252.698 221.444C223.663 211.14 190.373 230.517 200.218 252.331C210.433 274.968 250.378 278.46 253.173 277.59Z" fill="#C2B7BC"/>
</g>
<g style="mix-blend-mode:multiply">
<path d="M276.155 350.05C247.7 348.089 220.996 336.695 196.414 316.889L170.267 323.375C170.267 323.375 178.848 344.643 211.361 357.708C243.874 370.773 279.181 362.059 283.819 358.578C286.938 356.246 289.628 351.953 291.066 349.377C286.985 350.201 281.999 350.445 276.143 350.05H276.155Z" fill="#C2B7BC"/>
</g>
<path d="M373.114 334.015C373.114 323.92 371.166 315.299 367.502 307.781C366.957 307.398 365.09 306.11 361.866 303.871C357.982 301.179 354.109 301.515 354.109 301.515C354.109 301.515 351.523 296.491 348.938 293.88C346.352 291.281 341.181 292.743 341.181 292.743C341.181 292.743 339.244 290.179 336.647 287.58C334.061 284.981 325.005 284.958 325.005 284.958C325.005 284.958 321.77 276.847 318.535 272.38C317.097 270.396 316.32 269.433 315.88 268.957C303.925 264.073 297.212 263.342 281.79 259.211C247.364 249.917 238.934 245.717 238.934 234.195C238.934 225.632 247.016 219.935 263.527 221.072C263.91 221.096 264.293 221.142 264.687 221.177L306.244 255.034L332.391 248.548L366.47 205.78C344.694 187.818 318.697 176.146 287.077 170.669V149.923L248.43 147.255L222.283 153.741L228.545 166.04L229.113 170.275C192.576 177.573 170.093 201.301 170.093 236.028C170.093 283.113 210.491 298.742 262.832 313.547C296.203 323.097 304.632 325.324 304.632 336.185C304.632 346.059 294.8 351.315 276.178 350.027C247.723 348.066 221.019 336.672 196.438 316.866L170.29 323.352L151.657 364.229L180.877 377.201L183.59 375.309C203.058 387.11 225.078 395.278 248.419 399.815V421.547L257.892 422.197L260.918 430.69L287.066 424.204L287.564 403.446C339.963 402.971 373.137 377.967 373.137 333.98L373.114 334.015Z" stroke="#363636" stroke-linecap="round" stroke-linejoin="round"/>
<path d="M335.731 310.368C331.846 307.676 327.974 308.013 327.974 308.013C327.974 308.013 325.388 302.989 322.802 300.378C320.216 297.779 315.045 299.241 315.045 299.241C315.045 299.241 313.109 296.677 310.511 294.078C307.925 291.479 298.87 291.455 298.87 291.455C298.87 291.455 295.635 283.345 292.399 278.878C290.962 276.894 290.185 275.931 289.744 275.455C277.79 270.57 271.076 269.839 255.654 265.709C221.228 256.415 212.798 252.214 212.798 240.693C212.798 232.13 220.88 226.433 237.392 227.57C259.179 229.067 283.761 238.337 306.244 255.046L340.322 212.277C318.547 194.316 292.55 182.644 260.93 177.167V156.421L222.283 153.752V174.498C174.511 176.471 143.946 202.02 143.946 242.526C143.946 289.611 184.344 305.24 236.684 320.045C270.056 329.594 278.485 331.822 278.485 342.682C278.485 352.556 268.652 357.812 250.031 356.524C221.576 354.564 194.872 343.17 170.29 323.363L132.351 363.231C156.944 385.346 188.205 399.687 222.283 406.312V421.872L260.93 430.702V409.956C313.619 409.642 347.001 384.615 347.001 340.489C347.001 330.395 345.053 321.774 341.389 314.255C340.844 313.872 338.977 312.584 335.754 310.345L335.731 310.368Z" fill="#51D289" stroke="#363636" stroke-linecap="round" stroke-linejoin="round"/>
<path d="M335.731 310.368C331.846 307.676 327.974 308.013 327.974 308.013C327.974 308.013 325.388 302.989 322.802 300.378C320.216 297.779 315.045 299.241 315.045 299.241C315.045 299.241 313.109 296.677 310.511 294.078C307.925 291.479 298.87 291.455 298.87 291.455C298.87 291.455 295.635 283.345 292.399 278.878C290.962 276.894 290.185 275.931 289.744 275.455C277.79 270.57 271.076 269.839 255.654 265.709C221.228 256.415 212.798 252.214 212.798 240.693C212.798 232.13 220.88 226.433 237.392 227.57C259.179 229.067 283.761 238.337 306.244 255.046L340.322 212.277C318.547 194.316 292.55 182.644 260.93 177.167V156.421L222.283 153.752V174.498C174.511 176.471 143.946 202.02 143.946 242.526C143.946 289.611 184.344 305.24 236.684 320.045C270.056 329.594 278.485 331.822 278.485 342.682C278.485 352.556 268.652 357.812 250.031 356.524C221.576 354.564 194.872 343.17 170.29 323.363L132.351 363.231C156.944 385.346 188.205 399.687 222.283 406.312V421.872L260.93 430.702V409.956C313.619 409.642 347.001 384.615 347.001 340.489C347.001 330.395 345.053 321.774 341.389 314.255C340.844 313.872 338.977 312.584 335.754 310.345L335.731 310.368Z" stroke="#363636" stroke-linecap="round" stroke-linejoin="round"/>
<path d="M340.299 212.277L356.927 207.857" stroke="#363636" stroke-linecap="round" stroke-linejoin="round"/>
<path d="M260.907 156.421L278.497 153.079" stroke="#363636" stroke-linecap="round" stroke-linejoin="round"/>
<path d="M260.907 177.167L278.497 173.976" stroke="#363636" stroke-linecap="round" stroke-linejoin="round"/>
<path d="M289.721 275.455L301.571 274.156L306.186 269.839L315.868 268.969" stroke="#363636" stroke-linecap="round" stroke-linejoin="round"/>
<path d="M341.354 314.278L345.39 310.913L351.547 310.194H355.385H363.849L367.502 307.792" stroke="#363636" stroke-linecap="round" stroke-linejoin="round"/>
<path d="M362.238 267.472C362.238 267.472 375.085 267.867 379.166 269.398" stroke="#363636" stroke-linecap="round" stroke-linejoin="round"/>
<path d="M446.001 388.572C446.001 388.572 457.851 412.636 478.584 426.525" stroke="white" stroke-linecap="round" stroke-linejoin="round"/>
<path d="M561.524 246.958C561.524 246.958 568.435 233.07 589.167 239.556" stroke="#363636" stroke-linecap="round" stroke-linejoin="round"/>
<path d="M563.507 296.015C563.507 296.015 578.314 300.645 573.386 321.008" stroke="#363636" stroke-linecap="round" stroke-linejoin="round"/>
<path d="M395.307 308.941C395.307 308.941 398.612 330.255 407.494 338.586C416.375 346.917 431.194 333.957 431.194 333.957" stroke="#363636" stroke-linecap="round" stroke-linejoin="round"/>
<path d="M345.135 299.067C345.135 299.96 344.358 300.691 343.407 300.691C342.456 300.691 341.679 299.972 341.679 299.067C341.679 298.162 342.456 297.443 343.407 297.443C344.358 297.443 345.135 298.174 345.135 299.067Z" fill="white" stroke="#363636" stroke-linecap="round" stroke-linejoin="round"/>
<path d="M337.748 271.208C339.105 271.208 340.207 272.241 340.207 273.517C340.207 274.794 339.105 275.826 337.748 275.826C336.392 275.826 335.29 274.794 335.29 273.517C335.29 272.241 336.392 271.208 337.748 271.208Z" fill="white" stroke="#363636" stroke-linecap="round" stroke-linejoin="round"/>
<path d="M329.551 298.255C330.907 298.255 332.009 299.287 332.009 300.564C332.009 301.84 330.907 302.873 329.551 302.873C328.194 302.873 327.092 301.84 327.092 300.564C327.092 299.287 328.194 298.255 329.551 298.255Z" fill="white" stroke="#363636" stroke-linecap="round" stroke-linejoin="round"/>
<path d="M340.995 283.078C340.995 283.972 340.218 284.703 339.267 284.703C338.317 284.703 337.54 283.983 337.54 283.078C337.54 282.173 338.317 281.454 339.267 281.454C340.218 281.454 340.995 282.173 340.995 283.078Z" fill="white" stroke="#363636" stroke-linecap="round" stroke-linejoin="round"/>
<path d="M314.094 283.078C314.094 283.972 313.317 284.703 312.366 284.703C311.416 284.703 310.639 283.983 310.639 283.078C310.639 282.173 311.416 281.454 312.366 281.454C313.317 281.454 314.094 282.173 314.094 283.078Z" fill="white" stroke="#363636" stroke-linecap="round" stroke-linejoin="round"/>
<path d="M499.362 402.124L504.012 440.437C504.012 440.437 501.519 448.152 495.327 448.21" stroke="white" stroke-linecap="round" stroke-linejoin="round"/>
<path d="M557.883 404.734C557.883 404.734 561.594 418.669 581.109 426.501" stroke="white" stroke-linecap="round" stroke-linejoin="round"/>
<path d="M526.298 397.343L529.208 407.566" stroke="white" stroke-linecap="round" stroke-linejoin="round"/>
</g>
</svg>
