<svg width="38" height="38" viewBox="0 0 38 38" fill="none" xmlns="http://www.w3.org/2000/svg">
<g clip-path="url(#clip0_8_644)">
<path d="M19.7917 15.8333C19.7917 13.2208 17.6542 11.0833 15.0417 11.0833C12.4292 11.0833 10.2917 13.2208 10.2917 15.8333C10.2917 18.4458 12.4292 20.5833 15.0417 20.5833C17.6542 20.5833 19.7917 18.4458 19.7917 15.8333ZM15.0417 17.4167C14.1708 17.4167 13.4583 16.7042 13.4583 15.8333C13.4583 14.9625 14.1708 14.25 15.0417 14.25C15.9125 14.25 16.625 14.9625 16.625 15.8333C16.625 16.7042 15.9125 17.4167 15.0417 17.4167ZM25.3333 20.5833C27.0908 20.5833 28.5 19.1742 28.5 17.4167C28.5 15.6592 27.0908 14.25 25.3333 14.25C23.5758 14.25 22.1508 15.6592 22.1667 17.4167C22.1667 19.1742 23.5758 20.5833 25.3333 20.5833ZM18.9841 3.1825C10.2442 3.1825 3.15082 10.2758 3.15082 19.0158C3.15082 27.7558 10.2442 34.8492 18.9841 34.8492C27.7241 34.8492 34.8175 27.7558 34.8175 19.0158C34.8175 10.2758 27.7241 3.1825 18.9841 3.1825ZM9.24665 27.1067C10.3233 26.2517 12.8408 25.3492 15.0417 25.3492C15.1525 25.3492 15.2792 25.365 15.4058 25.365C15.7858 24.3517 16.4667 23.3225 17.4642 22.42C16.5775 22.2617 15.7383 22.1667 15.0417 22.1667C12.9833 22.1667 9.67415 22.8792 7.55248 24.4308C6.76082 22.7842 6.31748 20.9475 6.31748 19C6.31748 12.0175 12.0017 6.33333 18.9841 6.33333C25.9667 6.33333 31.6508 12.0175 31.6508 19C31.6508 20.9 31.2233 22.705 30.4633 24.3358C28.88 23.4017 26.7267 22.9583 25.3333 22.9583C22.9267 22.9583 18.2083 24.2408 18.2083 27.2333V31.635C14.6142 31.4292 11.4158 29.7192 9.24665 27.1067Z" fill="#FFFDE7"/>
</g>
<defs>
<clipPath id="clip0_8_644">
<rect width="38" height="38" fill="white"/>
</clipPath>
</defs>
</svg>
